<svg width="100" height="100" viewBox="0 0 100 100" fill="none" xmlns="http://www.w3.org/2000/svg">
<path d="M49.9512 8.00781C26.8457 8.00781 8.05664 26.7969 8.05664 49.9023C8.05664 72.998 26.8555 91.7969 49.9512 91.7969C73.0566 91.7969 91.8457 73.0078 91.8457 49.9023C91.8457 26.8066 73.0566 8.00781 49.9512 8.00781ZM86.8262 47.4414H71.709C71.3184 33.7793 67.666 22.0605 62.1875 15.0293C75.8301 19.8242 85.8398 32.4219 86.8262 47.4414ZM47.4902 13.3594V47.4414H33.1348C33.6719 30.3027 39.834 15.9375 47.4902 13.3594ZM47.4902 52.3633V86.4453C39.834 83.8672 33.6816 69.502 33.1348 52.3633H47.4902ZM52.4219 86.4453V52.3633H66.7773C66.2305 69.502 60.0781 83.8672 52.4219 86.4453ZM52.4219 47.4414V13.3594C60.0781 15.9375 66.2305 30.3027 66.7773 47.4414H52.4219ZM37.7246 15.0293C32.2461 22.0605 28.5937 33.7793 28.2031 47.4414H13.0762C14.0723 32.4219 24.0723 19.8242 37.7246 15.0293ZM13.0762 52.3633H28.1934C28.584 66.0254 32.2363 77.7441 37.7148 84.7754C24.0723 79.9805 14.0723 67.3828 13.0762 52.3633ZM62.1777 84.7754C67.6562 77.7441 71.3086 66.0254 71.6992 52.3633H86.8164C85.8398 67.3828 75.8301 79.9805 62.1777 84.7754Z" fill="#448AB5"/>
</svg>
