<svg width="120" height="120" viewBox="0 0 120 120" fill="none" xmlns="http://www.w3.org/2000/svg">
<path fill-rule="evenodd" clip-rule="evenodd" d="M60 18C54.4845 18 49.023 19.0864 43.9273 21.1971C38.8316 23.3078 34.2016 26.4015 30.3015 30.3015C26.4015 34.2016 23.3078 38.8316 21.1971 43.9273C19.0864 49.023 18 54.4845 18 60C18 65.5155 19.0864 70.977 21.1971 76.0727C23.3078 81.1684 26.4015 85.7984 30.3015 89.6985C34.2016 93.5985 38.8316 96.6922 43.9273 98.8029C49.023 100.914 54.4845 102 60 102C71.1391 102 81.822 97.575 89.6985 89.6985C97.575 81.822 102 71.1391 102 60C102 48.8609 97.575 38.178 89.6985 30.3015C81.822 22.425 71.1391 18 60 18ZM6 60C6 45.6783 11.6893 31.9432 21.8162 21.8162C31.9432 11.6893 45.6783 6 60 6C74.3217 6 88.0568 11.6893 98.1838 21.8162C108.311 31.9432 114 45.6783 114 60C114 74.3217 108.311 88.0568 98.1838 98.1838C88.0568 108.311 74.3217 114 60 114C45.6783 114 31.9432 108.311 21.8162 98.1838C11.6893 88.0568 6 74.3217 6 60ZM90 60.414C90 62.0053 89.3679 63.5314 88.2426 64.6566C87.1174 65.7819 85.5913 66.414 84 66.414H66.414V84C66.414 85.5913 65.7819 87.1174 64.6566 88.2426C63.5314 89.3679 62.0053 90 60.414 90C58.8227 90 57.2966 89.3679 56.1714 88.2426C55.0461 87.1174 54.414 85.5913 54.414 84V66.414H36C34.4087 66.414 32.8826 65.7819 31.7574 64.6566C30.6321 63.5314 30 62.0053 30 60.414C30 58.8227 30.6321 57.2966 31.7574 56.1714C32.8826 55.0461 34.4087 54.414 36 54.414H54.414V36C54.414 34.4087 55.0461 32.8826 56.1714 31.7574C57.2966 30.6321 58.8227 30 60.414 30C62.0053 30 63.5314 30.6321 64.6566 31.7574C65.7819 32.8826 66.414 34.4087 66.414 36V54.414H84C85.5913 54.414 87.1174 55.0461 88.2426 56.1714C89.3679 57.2966 90 58.8227 90 60.414Z" fill="#7CB9DE"/>
</svg>
