<svg width="130" height="130" viewBox="0 0 130 130" fill="none" xmlns="http://www.w3.org/2000/svg">
<path d="M35.2084 21.6668C27.7295 21.6668 21.6667 27.7297 21.6667 35.2085V37.9168C21.6667 40.9083 19.2416 43.3335 16.25 43.3335C13.2585 43.3335 10.8334 40.9083 10.8334 37.9168V35.2085C10.8334 21.7466 21.7464 10.8335 35.2084 10.8335H37.9167C40.9082 10.8335 43.3334 13.2586 43.3334 16.2502C43.3334 19.2417 40.9082 21.6668 37.9167 21.6668H35.2084Z" fill="#7CB9DE"/>
<path fill-rule="evenodd" clip-rule="evenodd" d="M59.3656 32.5C55.7592 32.4999 52.7282 32.4998 50.2481 32.7025C47.655 32.9143 45.1907 33.3744 42.8514 34.5664C39.2842 36.3839 36.3839 39.2842 34.5664 42.8514C33.3744 45.1907 32.9143 47.655 32.7025 50.2481C32.6061 51.4287 32.5555 52.7339 32.529 54.1667H21.6667C18.6751 54.1667 16.25 56.5917 16.25 59.5833C16.25 62.575 18.6751 65 21.6667 65H108.333C111.325 65 113.75 62.575 113.75 59.5833C113.75 56.5917 111.325 54.1667 108.333 54.1667H97.4707C97.4447 52.7339 97.3938 51.4286 97.2974 50.2481C97.0856 47.655 96.6257 45.1907 95.4335 42.8514C93.6162 39.2842 90.7156 36.3839 87.1488 34.5664C84.8093 33.3744 82.3447 32.9143 79.7517 32.7025C77.272 32.4998 74.2408 32.4999 70.6344 32.5H59.3656ZM86.6358 54.1667C86.6125 52.9983 86.5719 52.0061 86.5004 51.1303C86.3433 49.2072 86.0654 48.3272 85.781 47.7696C85.0021 46.2408 83.759 44.9979 82.2304 44.2189C81.673 43.9349 80.7928 43.657 78.8699 43.4998C76.8831 43.3376 74.2982 43.3333 70.4167 43.3333H59.5833C55.7017 43.3333 53.1166 43.3376 51.1303 43.4998C49.2072 43.657 48.3272 43.9349 47.7696 44.2189C46.2408 44.9979 44.9979 46.2408 44.2189 47.7696C43.9349 48.3272 43.657 49.2072 43.4998 51.1303C43.4283 52.0061 43.3874 52.9983 43.3642 54.1667H86.6358Z" fill="#7CB9DE"/>
<path d="M76.2434 97.4998H59.3656C55.7597 97.4998 52.728 97.4998 50.2481 97.2973C47.655 97.0855 45.1907 96.6256 42.8514 95.4334C39.2842 93.6161 36.3839 90.7155 34.5664 87.1486C34.3678 86.7586 34.2619 86.5771 34.1248 86.342C34.0399 86.1963 33.9429 86.03 33.8045 85.7809C33.4342 85.1146 33.0333 84.275 32.7939 83.1023C32.5984 82.1441 32.5485 81.1328 32.5246 80.1394C32.5 79.1146 32.5 77.7409 32.5 75.9193V75.8332C32.5 72.8415 34.9251 70.4165 37.9167 70.4165C40.9082 70.4165 43.3333 72.8415 43.3333 75.8332C43.3333 77.7604 43.3337 79.0008 43.3548 79.8789C43.3648 80.2911 43.3787 80.5565 43.39 80.7195C43.567 81.025 43.9092 81.6225 44.2189 82.2303C44.9979 83.7588 46.2408 85.002 47.7696 85.7809C48.3272 86.0653 49.2072 86.3431 51.1303 86.5002C53.1166 86.6622 55.7017 86.6665 59.5833 86.6665H75.8333C78.5563 86.6665 79.287 86.6497 79.813 86.5663C83.2894 86.016 86.0161 83.2892 86.5665 79.8128C86.6499 79.2868 86.6667 78.5561 86.6667 75.8332C86.6667 72.8415 89.0917 70.4165 92.0833 70.4165C95.075 70.4165 97.5 72.8415 97.5 75.8332V76.2432C97.5011 78.3557 97.5016 80.0224 97.2665 81.5071C95.9817 89.6191 89.6193 95.9815 81.5073 97.2664C80.0226 97.5015 78.3559 97.5009 76.2434 97.4998Z" fill="#7CB9DE"/>
<path d="M119.167 92.0832C119.167 89.0915 116.742 86.6665 113.75 86.6665C110.758 86.6665 108.333 89.0915 108.333 92.0832V94.7915C108.333 102.27 102.27 108.333 94.7916 108.333H92.0833C89.0917 108.333 86.6666 110.758 86.6666 113.75C86.6666 116.741 89.0917 119.167 92.0833 119.167H94.7916C108.254 119.167 119.167 108.254 119.167 94.7915V92.0832Z" fill="#7CB9DE"/>
<path d="M86.6666 16.2502C86.6666 13.2586 89.0917 10.8335 92.0833 10.8335H94.7916C108.254 10.8335 119.167 21.7466 119.167 35.2085V37.9168C119.167 40.9083 116.742 43.3335 113.75 43.3335C110.758 43.3335 108.333 40.9083 108.333 37.9168V35.2085C108.333 27.7297 102.27 21.6668 94.7916 21.6668H92.0833C89.0917 21.6668 86.6666 19.2417 86.6666 16.2502Z" fill="#7CB9DE"/>
<path d="M21.6667 92.0832C21.6667 89.0915 19.2416 86.6665 16.25 86.6665C13.2585 86.6665 10.8334 89.0915 10.8334 92.0832V94.7915C10.8334 108.254 21.7464 119.167 35.2084 119.167H37.9167C40.9082 119.167 43.3334 116.741 43.3334 113.75C43.3334 110.758 40.9082 108.333 37.9167 108.333H35.2084C27.7295 108.333 21.6667 102.27 21.6667 94.7915V92.0832Z" fill="#7CB9DE"/>
</svg>
