<svg width="80" height="80" viewBox="0 0 80 80" fill="none" xmlns="http://www.w3.org/2000/svg">
<path fill-rule="evenodd" clip-rule="evenodd" d="M65.4984 2.66522C61.6114 -2.4327 53.3644 0.27142 53.3644 6.64377V13.0424C40.7904 12.8936 32.1889 17.2158 26.4594 23.2518C20.3346 29.7043 17.8154 37.7713 16.7597 43.2873C16.2319 46.045 18.0409 48.046 19.942 48.737C21.7582 49.397 24.1851 49.1143 25.8046 47.263C30.4013 42.009 39.3318 34.676 53.3644 35.1547V43.3563C53.3644 49.7287 61.6114 52.4327 65.4984 47.3347L77.9777 30.9678C80.6741 27.4313 80.6741 22.5687 77.9777 19.0322L65.4984 2.66522ZM24.9401 38.6983C30.9575 33.447 39.5951 28.5189 53.3644 28.5189H56.7357C58.5974 28.5189 60.1064 30.0034 60.1064 31.8346L60.1057 43.3563L72.5848 26.9893C73.4837 25.8104 73.4837 24.1896 72.5848 23.0107L60.1057 6.64377V16.3579C60.1057 18.189 58.5967 19.6734 56.7351 19.6734H53.3644C38.1978 19.6734 31.3866 27.7771 31.3866 27.7771C28.2509 31.0806 26.2329 35.0067 24.9401 38.6983Z" fill="#448AB5"/>
<path d="M23.3333 3.34619H13.3333C7.81042 3.34619 3.33325 7.82332 3.33325 13.3462V66.6795C3.33325 72.2025 7.81042 76.6795 13.3333 76.6795H66.6666C72.1896 76.6795 76.6666 72.2025 76.6666 66.6795V56.6795C76.6666 54.8385 75.1742 53.3462 73.3332 53.3462C71.4922 53.3462 69.9999 54.8385 69.9999 56.6795V66.6795C69.9999 68.5205 68.5076 70.0128 66.6666 70.0128H13.3333C11.4923 70.0128 9.99992 68.5205 9.99992 66.6795V13.3462C9.99992 11.5052 11.4923 10.0129 13.3333 10.0129H23.3333C25.1742 10.0129 26.6666 8.52046 26.6666 6.67953C26.6666 4.83856 25.1742 3.34619 23.3333 3.34619Z" fill="#448AB5"/>
</svg>
