<svg width="70" height="70" viewBox="0 0 70 70" fill="none" xmlns="http://www.w3.org/2000/svg">
<path d="M68.017 48.78L45.0289 8.94257C42.9574 5.35541 39.1303 3.14502 34.9872 3.14502C30.8443 3.14502 27.0172 5.35541 24.9457 8.94257L1.55359 49.4622C-0.517864 53.0494 -0.517864 57.4702 1.55359 61.0573C3.62504 64.6445 7.45218 66.8549 11.5951 66.8549H58.3796C58.3924 66.8549 58.4049 66.8549 58.4049 66.8549C64.8087 66.8549 70 61.6635 70 55.2598C70 52.8599 69.2674 50.6243 68.017 48.78ZM39.9513 52.6577C39.9513 55.3986 37.8419 57.4953 35 57.4953C32.1581 57.4953 30.0487 55.3986 30.0487 52.6577V52.5442C30.0487 49.8158 32.1581 47.7064 35 47.7064C37.8419 47.7064 39.9513 49.8033 39.9513 52.5442V52.6577ZM40.065 20.0451L37.6146 41.4417C37.4504 42.9826 36.4273 43.9426 35 43.9426C33.5727 43.9426 32.5496 42.97 32.3854 41.4417L29.935 20.0324C29.7708 18.3778 30.6678 17.1273 32.2086 17.1273H37.7788C39.3197 17.14 40.2292 18.3904 40.065 20.0451Z" fill="#E87676"/>
</svg>
